<svg id="Layer_1" data-name="Layer 1" xmlns="http://www.w3.org/2000/svg" viewBox="0 0 202.46 205.41"><defs><style>.cls-1{fill:#312783;}.cls-2{fill:#eb612e;}</style></defs><path class="cls-1" d="M223.08,65.69s-12.83,9-29.37,10c-1.25.08-2.53.11-3.82.09a46.07,46.07,0,0,1-5.78-.47L164.47,58.78A27.35,27.35,0,0,1,163,52.05a30,30,0,0,1-.18-3.78C162.93,38,168.4,22.87,196.64,16c0,0-5,35.68-20.81,43.81C176.34,59.64,205.76,49.63,223.08,65.69Z" transform="translate(-20.62 -16.01)"/><path class="cls-2" d="M163,52.05a27.35,27.35,0,0,0,1.51,6.73L184.11,75.3a46.07,46.07,0,0,0,5.78.47A92.76,92.76,0,0,0,163,52.05Z" transform="translate(-20.62 -16.01)"/><path class="cls-2" d="M191.72,78.24c-.59-.83-1.2-1.66-1.83-2.47a46.07,46.07,0,0,1-5.78-.47L164.47,58.78A27.35,27.35,0,0,1,163,52.05c-.72-.42-1.44-.83-2.17-1.23A95.56,95.56,0,0,0,114.56,39c-51.88,0-93.94,40.84-93.94,91.2s42.06,91.2,93.94,91.2,93.94-40.84,93.94-91.2A88.82,88.82,0,0,0,191.72,78.24Zm-88.38,64.9a37.14,37.14,0,0,1-3.34,3.65,38.69,38.69,0,0,1-26.81,10.66c-1.09,0-2.15,0-3.21-.13-19.63-1.58-35-17.55-35-37s15.39-35.4,35-37l93.2.21A38.54,38.54,0,0,1,186.8,95.77a36.31,36.31,0,0,1,9.55,24.55c0,18.84-14.44,34.39-33.17,36.79a36.65,36.65,0,0,1-5.06.34,38.63,38.63,0,0,1-24.94-9l0,0a36,36,0,0,1-5.31-5.45,14,14,0,0,0-24.44.1m0,0-.07.06" transform="translate(-20.62 -16.01)"/><path class="cls-1" d="M173.65,115.78a15.24,15.24,0,1,1-15.24-15.24A15.23,15.23,0,0,1,173.65,115.78Zm-15.17,10.68c.38,0,.76,0,1.13-.09a10.67,10.67,0,0,0,9.43-9.8,10.27,10.27,0,0,0-.25-3.27,10.7,10.7,0,0,0-11.27-8.15,3,3,0,0,0-.93.22,1.22,1.22,0,0,0-.8,1.32,4.57,4.57,0,0,0,.29,1.2c.28.72.58,1.44.88,2.16a26.89,26.89,0,0,1,1,2.89,10.11,10.11,0,0,1,.06,5.43,23.13,23.13,0,0,1-1.06,3c-.31.73-.61,1.47-.91,2.21a4.46,4.46,0,0,0-.3,1.26,1.19,1.19,0,0,0,.74,1.27,2.6,2.6,0,0,0,.42.15A7.1,7.1,0,0,0,158.48,126.46Z" transform="translate(-20.62 -16.01)"/><path class="cls-1" d="M158.42,137.68a16.15,16.15,0,0,1-9.4-3,3.22,3.22,0,0,1-.93-.91,2.12,2.12,0,0,1-.35-1.13,1.29,1.29,0,0,1,.84-1.24,2,2,0,0,1,1.21-.09,2.87,2.87,0,0,1,1.05.48,12.85,12.85,0,0,0,15.12,0,2.77,2.77,0,0,1,1.46-.54,1.73,1.73,0,0,1,1.16.34,1.13,1.13,0,0,1,.48.89,2.14,2.14,0,0,1-.65,1.68,5.42,5.42,0,0,1-1.07.82,16.1,16.1,0,0,1-8.92,2.67Z" transform="translate(-20.62 -16.01)"/><path class="cls-1" d="M158.51,143.45a13.11,13.11,0,0,1-7.76-2.49,2.07,2.07,0,0,1-.81-1.12,1.37,1.37,0,0,1-.06-.57,1,1,0,0,1,.83-.89,1.89,1.89,0,0,1,1.62.35c.3.2.59.41.89.58a9.94,9.94,0,0,0,4.95,1.4,10.13,10.13,0,0,0,6.3-2,2,2,0,0,1,1.39-.41l.25,0a1.06,1.06,0,0,1,.81,1.26,2,2,0,0,1-.85,1.31,12.85,12.85,0,0,1-2.33,1.35,13.16,13.16,0,0,1-3.47,1l-.67.08Z" transform="translate(-20.62 -16.01)"/><path class="cls-1" d="M161.41,145.41a.68.68,0,0,1,.1.45,1,1,0,0,1-.23.58,3.89,3.89,0,0,1-2.25,1.49,3,3,0,0,1-2.23-.38,4.45,4.45,0,0,1-1.21-1,1.09,1.09,0,0,1-.28-.82,1.53,1.53,0,0,1,.07-.29,13.53,13.53,0,0,0,3,.35A12.82,12.82,0,0,0,161.41,145.41Z" transform="translate(-20.62 -16.01)"/><path class="cls-1" d="M104,101.39a18.7,18.7,0,0,1-8.64,2.94c-.37,0-.75,0-1.13,0a14.42,14.42,0,0,1-1.7-.14L86.7,99.36a8.15,8.15,0,0,1-.45-2c0-.34,0-.71,0-1.11,0-3,1.66-7.47,10-9.5,0,0-1.48,10.51-6.13,12.9C90.19,99.61,98.85,96.66,104,101.39Z" transform="translate(-20.62 -16.01)"/><path class="cls-2" d="M86.25,97.37a8.15,8.15,0,0,0,.45,2l5.78,4.86a14.42,14.42,0,0,0,1.7.14A27.3,27.3,0,0,0,86.25,97.37Z" transform="translate(-20.62 -16.01)"/><path class="cls-2" d="M94.72,105.08q-.25-.36-.54-.72a14.42,14.42,0,0,1-1.7-.14L86.7,99.36a8.15,8.15,0,0,1-.45-2L85.62,97A28.2,28.2,0,0,0,72,93.54c-15.28,0-27.66,12-27.66,26.85S56.73,147.23,72,147.23s27.65-12,27.65-26.84A26.22,26.22,0,0,0,94.72,105.08Zm-26,19.11a10,10,0,0,1-1,1.07,11.33,11.33,0,0,1-7.89,3.14c-.32,0-.64,0-.95,0a10.9,10.9,0,0,1,0-21.77l27.44.06a11.34,11.34,0,0,1,7,3.6,10.68,10.68,0,0,1,2.81,7.22,11,11,0,0,1-9.76,10.83,10.46,10.46,0,0,1-1.49.1,11.35,11.35,0,0,1-7.34-2.65h0a10.8,10.8,0,0,1-1.56-1.61,4.11,4.11,0,0,0-7.2,0m0,0,0,0" transform="translate(-20.62 -16.01)"/><path class="cls-1" d="M89.4,116.14a4.49,4.49,0,1,1-4.48-4.49A4.48,4.48,0,0,1,89.4,116.14Zm-4.46,3.14.33,0a3.16,3.16,0,0,0,2.78-2.88,3.16,3.16,0,0,0-.08-1A3.14,3.14,0,0,0,84.65,113a.66.66,0,0,0-.27.06.37.37,0,0,0-.24.39,1.06,1.06,0,0,0,.09.35c.08.22.17.43.26.64a8.57,8.57,0,0,1,.3.85,3,3,0,0,1,0,1.6,7.22,7.22,0,0,1-.31.89l-.27.65a1.54,1.54,0,0,0-.09.37.36.36,0,0,0,.22.38l.12,0A2.31,2.31,0,0,0,84.94,119.28Z" transform="translate(-20.62 -16.01)"/><path class="cls-1" d="M84.92,122.58a4.72,4.72,0,0,1-2.77-.87,1.15,1.15,0,0,1-.27-.27.5.5,0,0,1-.1-.33.37.37,0,0,1,.24-.37.64.64,0,0,1,.36,0,1,1,0,0,1,.31.15,3.72,3.72,0,0,0,1,.52,4,4,0,0,0,1,.2,3.82,3.82,0,0,0,2.4-.72.84.84,0,0,1,.43-.16.47.47,0,0,1,.34.1.34.34,0,0,1,.14.26.59.59,0,0,1-.19.49,1.89,1.89,0,0,1-.31.25,4.87,4.87,0,0,1-1.74.7A4.47,4.47,0,0,1,84.92,122.58Z" transform="translate(-20.62 -16.01)"/><path class="cls-1" d="M84.94,124.28a3.87,3.87,0,0,1-2.28-.73.66.66,0,0,1-.24-.33.33.33,0,0,1,0-.17.29.29,0,0,1,.24-.26.56.56,0,0,1,.48.1l.26.17a3,3,0,0,0,1.45.42,3.09,3.09,0,0,0,1.86-.58.56.56,0,0,1,.41-.12h.07a.31.31,0,0,1,.24.37.55.55,0,0,1-.25.38,3.57,3.57,0,0,1-.68.4,3.69,3.69,0,0,1-1,.3l-.19,0Z" transform="translate(-20.62 -16.01)"/><path class="cls-1" d="M85.8,124.86a.21.21,0,0,1,0,.13.36.36,0,0,1-.07.17,1.15,1.15,0,0,1-.66.44,1,1,0,0,1-.66-.11,1.32,1.32,0,0,1-.36-.31.41.41,0,0,1-.08-.24.19.19,0,0,0,0-.08,3.86,3.86,0,0,0,.89.1A3.8,3.8,0,0,0,85.8,124.86Z" transform="translate(-20.62 -16.01)"/><path class="cls-1" d="M70.66,111.06a6.32,6.32,0,0,1-2.94,1h-.38a5.65,5.65,0,0,1-.58,0l-2-1.66a2.65,2.65,0,0,1-.15-.67,2.36,2.36,0,0,1,0-.38c0-1,.56-2.55,3.39-3.24,0,0-.5,3.58-2.08,4.39C66,110.46,68.93,109.45,70.66,111.06Z" transform="translate(-20.62 -16.01)"/><path class="cls-2" d="M64.64,109.7a2.65,2.65,0,0,0,.15.67l2,1.66a5.65,5.65,0,0,0,.58,0A9.31,9.31,0,0,0,64.64,109.7Z" transform="translate(-20.62 -16.01)"/><path class="cls-2" d="M67.52,112.32l-.18-.25a5.65,5.65,0,0,1-.58,0l-2-1.66a2.65,2.65,0,0,1-.15-.67l-.22-.13a9.62,9.62,0,0,0-4.63-1.18,9.14,9.14,0,1,0,9.41,9.14A8.9,8.9,0,0,0,67.52,112.32Zm-8.86,6.5a2.91,2.91,0,0,1-.33.37,3.9,3.9,0,0,1-2.69,1.07h-.32a3.72,3.72,0,0,1,0-7.42l9.34,0A3.86,3.86,0,0,1,67,114.08a3.64,3.64,0,0,1,1,2.46,3.76,3.76,0,0,1-3.32,3.69,4.36,4.36,0,0,1-.51,0,3.9,3.9,0,0,1-2.5-.9h0a3.93,3.93,0,0,1-.53-.55,1.4,1.4,0,0,0-2.45,0m0,0h0" transform="translate(-20.62 -16.01)"/><path class="cls-1" d="M65.71,116.08a1.53,1.53,0,1,1-1.53-1.53A1.53,1.53,0,0,1,65.71,116.08Zm-1.52,1.07h.11a1.08,1.08,0,0,0,1-1,.93.93,0,0,0,0-.33,1.06,1.06,0,0,0-1.13-.81L64,115a.11.11,0,0,0-.08.13.27.27,0,0,0,0,.12l.09.22c0,.09.07.19.1.29a1.1,1.1,0,0,1,0,.54,2.83,2.83,0,0,1-.11.31l-.09.22a.27.27,0,0,0,0,.12.11.11,0,0,0,.07.13l0,0Z" transform="translate(-20.62 -16.01)"/><path class="cls-1" d="M64.18,118.28a1.59,1.59,0,0,1-.94-.3.26.26,0,0,1-.09-.09.17.17,0,0,1,0-.11.13.13,0,0,1,.09-.13.17.17,0,0,1,.12,0l.1,0a1.16,1.16,0,0,0,.35.18,1,1,0,0,0,.35.06,1.22,1.22,0,0,0,.82-.24.24.24,0,0,1,.14,0,.12.12,0,0,1,.12,0,.11.11,0,0,1,0,.09.22.22,0,0,1-.07.17l-.1.08a1.6,1.6,0,0,1-.59.24Z" transform="translate(-20.62 -16.01)"/><path class="cls-1" d="M64.19,118.86a1.42,1.42,0,0,1-.78-.25.2.2,0,0,1-.08-.12s0,0,0,0a.09.09,0,0,1,.08-.09.18.18,0,0,1,.16,0l.09.06a1,1,0,0,0,1.13-.06.23.23,0,0,1,.14,0h0a.1.1,0,0,1,.08.12.2.2,0,0,1-.08.14,1.71,1.71,0,0,1-.23.13,1.54,1.54,0,0,1-.35.1h-.18Z" transform="translate(-20.62 -16.01)"/><path class="cls-1" d="M64.48,119.05a.09.09,0,0,1,0,0,.14.14,0,0,1,0,.06.46.46,0,0,1-.23.15.34.34,0,0,1-.22,0,.43.43,0,0,1-.12-.11.11.11,0,0,1,0-.08,0,0,0,0,1,0,0,1.15,1.15,0,0,0,.6,0Z" transform="translate(-20.62 -16.01)"/><path class="cls-1" d="M59,114.54a1.91,1.91,0,0,1-.91.31h-.29l-.61-.51a1,1,0,0,1,0-.21.49.49,0,0,1,0-.12c0-.32.17-.78,1.05-1,0,0-.16,1.1-.65,1.35A1.59,1.59,0,0,1,59,114.54Z" transform="translate(-20.62 -16.01)"/><path class="cls-2" d="M57.16,114.12a1,1,0,0,0,0,.21l.61.51H58A3.05,3.05,0,0,0,57.16,114.12Z" transform="translate(-20.62 -16.01)"/><path class="cls-2" d="M58,114.93a.35.35,0,0,0,0-.08h-.18l-.61-.51a1,1,0,0,1,0-.21l-.07,0a3,3,0,0,0-1.43-.36,2.82,2.82,0,1,0,2.9,2.81A2.69,2.69,0,0,0,58,114.93Zm-2.72,2a1.14,1.14,0,0,1-.11.11,1.15,1.15,0,0,1-.83.33h-.09a1.15,1.15,0,0,1,0-2.29h2.87a1.21,1.21,0,0,1,.73.38,1.08,1.08,0,0,1,.3.76,1.15,1.15,0,0,1-1,1.13H57a1.14,1.14,0,0,1-.77-.28h0a1.29,1.29,0,0,1-.17-.16.42.42,0,0,0-.75,0m0,0h0" transform="translate(-20.62 -16.01)"/><path class="cls-1" d="M57.49,116.09a.48.48,0,1,1-1,0,.48.48,0,0,1,.48-.47A.48.48,0,0,1,57.49,116.09Zm-.47.32h0a.3.3,0,0,0,.2-.1.27.27,0,0,0,.09-.2.34.34,0,0,0,0-.1.34.34,0,0,0-.35-.25h0a.05.05,0,0,0,0,0,.08.08,0,0,1,0,0l0,.07,0,.09a.25.25,0,0,1,0,.17.32.32,0,0,1,0,.09l0,.07a.08.08,0,0,1,0,0,.05.05,0,0,0,0,0H57Z" transform="translate(-20.62 -16.01)"/><path class="cls-1" d="M57,116.76a.48.48,0,0,1-.29-.09s0,0,0,0a0,0,0,0,1,0,0s0,0,0,0h.07l.11.06.11,0a.46.46,0,0,0,.25-.08l0,0h0a.06.06,0,0,1,0,.08l0,0a.4.4,0,0,1-.18.07Z" transform="translate(-20.62 -16.01)"/><path class="cls-1" d="M57,116.94a.41.41,0,0,1-.24-.08l0,0v0s0,0,0,0h0l0,0a.33.33,0,0,0,.15,0,.28.28,0,0,0,.19-.07h0s0,0,0,0,0,0,0,0l-.07,0-.11,0h0Z" transform="translate(-20.62 -16.01)"/><path class="cls-1" d="M57.11,117h0s0,0,0,0a.13.13,0,0,1-.07,0H57a.08.08,0,0,1,0,0s0,0,0,0h.19Z" transform="translate(-20.62 -16.01)"/><path class="cls-1" d="M55.33,115.64a.55.55,0,0,1-.26.09H55l-.18-.15a.22.22,0,0,1,0-.06v0c0-.09.05-.23.3-.29,0,0,0,.32-.19.4C54.91,115.59,55.18,115.5,55.33,115.64Z" transform="translate(-20.62 -16.01)"/><path class="cls-2" d="M54.79,115.52a.22.22,0,0,0,0,.06l.18.15H55A.81.81,0,0,0,54.79,115.52Z" transform="translate(-20.62 -16.01)"/><path class="cls-2" d="M55.05,115.76l0,0H55l-.18-.15a.22.22,0,0,1,0-.06h0a.88.88,0,0,0-.42-.11.83.83,0,1,0,0,1.66.84.84,0,0,0,.85-.83A.75.75,0,0,0,55.05,115.76Zm-.8.58,0,0a.37.37,0,0,1-.25.1h0a.34.34,0,0,1-.32-.33.35.35,0,0,1,.32-.34h.85a.33.33,0,0,1,.21.11.32.32,0,0,1,.09.23.33.33,0,0,1-.3.33h0a.36.36,0,0,1-.22-.09h0a.12.12,0,0,1-.05,0,.11.11,0,0,0-.11-.06.14.14,0,0,0-.11.06m0,0h0" transform="translate(-20.62 -16.01)"/><path class="cls-1" d="M54.88,116.1a.13.13,0,0,1-.13.13.14.14,0,0,1-.14-.14.14.14,0,1,1,.27,0Zm-.13.09h0a.09.09,0,0,0,.06,0,.08.08,0,0,0,0-.06v0a.09.09,0,0,0,0,0,.1.1,0,0,0-.07,0h0a0,0,0,0,0,0,0h0v0a0,0,0,0,1,0,.05,0,0,0,0,1,0,0v0h0Z" transform="translate(-20.62 -16.01)"/><path class="cls-1" d="M54.75,116.3a.16.16,0,0,1-.09,0h0s0,0,0,0h0l0,0h0a.08.08,0,0,0,.08,0h0l-.06,0Z" transform="translate(-20.62 -16.01)"/><path class="cls-1" d="M54.75,116.35l-.07,0h0a0,0,0,0,1,0,0h.14v0h-.07Z" transform="translate(-20.62 -16.01)"/><path class="cls-1" d="M54.77,116.37Z" transform="translate(-20.62 -16.01)"/><path class="cls-1" d="M54.31,115.94a.17.17,0,0,1-.09,0h0l-.06,0v0h0s0-.08.1-.1,0,.11-.06.13A.17.17,0,0,1,54.31,115.94Z" transform="translate(-20.62 -16.01)"/><path class="cls-2" d="M54.12,115.9v0l.06,0h0A.27.27,0,0,0,54.12,115.9Z" transform="translate(-20.62 -16.01)"/><path class="cls-2" d="M54.21,116h0l-.06,0v0h0a.32.32,0,0,0-.14,0,.28.28,0,1,0,.29.28A.28.28,0,0,0,54.21,116Zm-.27.2h0a.14.14,0,0,1-.09,0h0a.11.11,0,0,1-.11-.11.13.13,0,0,1,.11-.12h.29a.08.08,0,0,1,.07,0,.11.11,0,0,1,0,.08.1.1,0,0,1-.1.11h0l-.08,0h0l0,0a.05.05,0,0,0,0,0s0,0,0,0m0,0h0" transform="translate(-20.62 -16.01)"/><path class="cls-1" d="M54.15,116.09a0,0,0,0,1,0,0,0,0,0,0,1,0,0,0,0,0,0,1,0,0A0,0,0,0,1,54.15,116.09Zm0,0h0a0,0,0,0,0,0,0h0a0,0,0,0,0,0,0h0Z" transform="translate(-20.62 -16.01)"/><path class="cls-1" d="M54.11,116.16h0Z" transform="translate(-20.62 -16.01)"/><path class="cls-1" d="M54.11,116.18h0Z" transform="translate(-20.62 -16.01)"/><polygon class="cls-1" points="33.5 100.18 33.5 100.18 33.5 100.18 33.49 100.19 33.49 100.19 33.48 100.18 33.48 100.18 33.48 100.18 33.49 100.18 33.5 100.18"/><path class="cls-1" d="M54,116h-.06s0,0,0,0,0,0,0,.05A.08.08,0,0,1,54,116Z" transform="translate(-20.62 -16.01)"/><path class="cls-2" d="M53.89,116h0Z" transform="translate(-20.62 -16.01)"/><path class="cls-2" d="M53.92,116.06h-.08a.09.09,0,1,0,0,.18.1.1,0,0,0,.1-.09A.08.08,0,0,0,53.92,116.06Zm-.09.06h0a0,0,0,1,1,0-.08h.09l0,0v0a0,0,0,0,1,0,0h-.06m0,0h0" transform="translate(-20.62 -16.01)"/><path class="cls-1" d="M53.9,116.1a0,0,0,0,1,0,0h0l0,0Zm0,0Z" transform="translate(-20.62 -16.01)"/><polygon class="cls-1" points="33.27 100.11 33.26 100.11 33.26 100.11 33.26 100.11 33.26 100.11 33.26 100.11 33.26 100.11 33.27 100.11 33.27 100.11 33.28 100.11 33.28 100.11 33.28 100.11 33.28 100.11 33.28 100.11 33.28 100.11 33.27 100.11 33.27 100.11"/><polygon class="cls-1" points="33.27 100.12 33.26 100.11 33.26 100.11 33.26 100.11 33.26 100.11 33.26 100.11 33.27 100.11 33.27 100.11 33.28 100.11 33.28 100.11 33.28 100.11 33.28 100.11 33.28 100.11 33.28 100.12 33.27 100.12 33.27 100.12 33.27 100.12"/><polygon class="cls-1" points="33.27 100.12 33.27 100.12 33.27 100.12 33.27 100.12 33.27 100.12 33.27 100.12 33.27 100.12 33.27 100.12 33.27 100.12 33.27 100.12"/><path class="cls-1" d="M53.83,116.08h0s0,0,0,0v0Z" transform="translate(-20.62 -16.01)"/><path class="cls-2" d="M53.81,116.08Z" transform="translate(-20.62 -16.01)"/><path class="cls-2" d="M53.82,116.08h0a0,0,0,0,0,0,0,0,0,0,0,0,0,0,0,0,0,0,0,0,0S53.82,116.09,53.82,116.08Zm0,0h0a0,0,0,0,1,0,0h0m0,0h0" transform="translate(-20.62 -16.01)"/><path class="cls-1" d="M53.82,116.1h0Zm0,0Z" transform="translate(-20.62 -16.01)"/><polygon class="cls-1" points="33.2 100.1 33.19 100.1 33.19 100.1 33.19 100.1 33.19 100.09 33.19 100.09 33.19 100.09 33.19 100.1 33.2 100.1 33.2 100.09 33.2 100.09 33.2 100.09 33.2 100.1 33.2 100.1 33.2 100.1 33.2 100.1 33.2 100.1"/><polygon class="cls-1" points="33.2 100.1 33.19 100.1 33.19 100.1 33.19 100.1 33.19 100.1 33.19 100.1 33.19 100.1 33.2 100.1 33.2 100.1 33.2 100.1 33.2 100.1 33.2 100.1 33.2 100.1 33.2 100.1 33.2 100.1 33.2 100.1 33.2 100.1"/><polygon class="cls-1" points="33.2 100.1 33.2 100.1 33.2 100.1 33.2 100.1 33.2 100.1 33.19 100.1 33.19 100.1 33.19 100.1 33.2 100.1 33.2 100.1"/><path class="cls-1" d="M53.78,116.1h0a0,0,0,0,1,0,0Zm0,0Zm0,0Zm0,0Zm0,0h0Zm0,0Zm0,0Zm0,0h0Zm0,0Zm0,0Zm0,0Zm0,0Zm0,0Zm0,0Zm0,0Zm0,0Zm0,0Z" transform="translate(-20.62 -16.01)"/><path class="cls-2" d="M192.93,19.07s-20.59,3.14-26.15,22.3C166.78,41.37,177,23.29,192.93,19.07Z" transform="translate(-20.62 -16.01)"/></svg>